{"title":"RIffTrax - Twilight New Moon 1080p [ANTiSHiT]","uid":8284973,"size":9033801563,"categoryP":"video","categoryS":"hd___movies","magnet":"?xt=urn:btih:475a6797df4fa64569eee9fce1620f8fbdbebaf0&amp;dn=RIffTrax+-+Twilight+New+Moon+1080p+%5BANTiSHiT%5D&amp;tr=udp%3A%2F%2Ftracker.openbittorrent.com%3A80&amp;tr=udp%3A%2F%2Fopen.demonii.com%3A1337&amp;tr=udp%3A%2F%2Ftracker.coppersurfer.tk%3A6969&amp;tr=udp%3A%2F%2Fexodus.desync.com%3A6969","seeders":1,"leechers":0,"uploader":"anti-shit","files":1,"time":1363924302,"description":"720p as well as 1080p/720p of the rest will be up within the next few days.\n-bgf\n\n\nGeneral\nFormat                                   : Matroska\nFormat version                           : Version 4 / Version 2\nFile size                                : 8.41 GiB\nDuration                                 : 2h 10mn\nOverall bit rate                         : 9 220 Kbps\nEncoded date                             : UTC 2013-03-21 01:56:24\nWriting application                      : mkvmerge v6.1.0 ('Old Devil') built on Mar  2 2013 22:22:31\nWriting library                          : libebml v1.3.0 + libmatroska v1.4.0\n\nVideo\nID                                       : 1\nFormat                                   : AVC\nFormat/Info                              : Advanced Video Codec\nFormat profile                           : &lt;a class=&quot;__cf_email__&quot; href=&quot;/cdn-cgi/l/email-protection&quot; data-cfemail=&quot;fab2939d92bab6cfd4ca&quot;&gt;[email&amp;#160;protected]&lt;/a&gt;&lt;script cf-hash='f9e31' type=&quot;text/javascript&quot;&gt;\n/* &lt;![CDATA[ */!function(){try{var t=&quot;currentScript&quot;in document?document.currentScript:function(){for(var t=document.getElementsByTagName(&quot;script&quot;),e=t.length;e--;)if(t[e].getAttribute(&quot;cf-hash&quot;))return t[e]}();if(t&amp;&amp;t.previousSibling){var e,r,n,i,c=t.previousSibling,a=c.getAttribute(&quot;data-cfemail&quot;);if(a){for(e=&quot;&quot;,r=parseInt(a.substr(0,2),16),n=2;a.length-n;n+=2)i=parseInt(a.substr(n,2),16)^r,e+=String.fromCharCode(i);e=document.createTextNode(e),c.parentNode.replaceChild(e,c)}}}catch(u){}}();/* ]]&gt; */&lt;/script&gt;\nFormat settings, CABAC                   : Yes\nFormat settings, ReFrames                : 16 frames\nCodec ID                                 : V_MPEG4/ISO/AVC\nDuration                                 : 2h 10mn\nBit rate                                 : 7 448 Kbps\nWidth                                    : 1 920 pixels\nHeight                                   : 800 pixels\nDisplay aspect ratio                     : 2.40:1\nFrame rate mode                          : Constant\nFrame rate                               : 23.976 fps\nColor space                              : YUV\nChroma subsampling                       : 4:2:0\nBit depth                                : 8 bits\nScan type                                : Progressive\nBits/(Pixel*Frame)                       : 0.202\nStream size                              : 6.80 GiB (81%)\nWriting library                          : x264 core 120\nEncoding settings                        : cabac=1 / ref=16 / deblock=1:0:0 / \nLanguage                                 : English\nDefault                                  : Yes\nForced                                   : No\nColor primaries                          : BT.709\nTransfer characteristics                 : BT.709\nMatrix coefficients                      : BT.709\n\nAudio\nID                                       : 2\nFormat                                   : DTS\nFormat/Info                              : Digital Theater Systems\nMode                                     : 16\nFormat settings, Endianness              : Big\nCodec ID                                 : A_DTS\nDuration                                 : 2h 10mn\nBit rate mode                            : Constant\nBit rate                                 : 1 588 Kbps\nChannel(s)                               : 2 channels\nChannel positions                        : Front: L R\nSampling rate                            : 48.0 KHz\nBit depth                                : 16 bits\nCompression mode                         : Lossy\nStream size                              : 1.45 GiB (17%)\nDefault                                  : Yes\nForced                                   : No","torrent":{"xt":"urn:btih:475a6797df4fa64569eee9fce1620f8fbdbebaf0","amp;dn":"RIffTrax+-+Twilight+New+Moon+1080p+%5BANTiSHiT%5D","amp;tr":["udp%3A%2F%2Ftracker.openbittorrent.com%3A80","udp%3A%2F%2Fopen.demonii.com%3A1337","udp%3A%2F%2Ftracker.coppersurfer.tk%3A6969","udp%3A%2F%2Fexodus.desync.com%3A6969"],"infoHash":"475a6797df4fa64569eee9fce1620f8fbdbebaf0","infoHashBuffer":{"type":"Buffer","data":[71,90,103,151,223,79,166,69,105,238,233,252,225,98,15,143,189,190,186,240]},"announce":[],"urlList":[]}}